<svg width="12" height="13" viewBox="0 0 12 13" fill="none" xmlns="http://www.w3.org/2000/svg">
<path d="M4.64063 6.5C4.64063 6.8481 4.77891 7.18194 5.02505 7.42808C5.2712 7.67422 5.60503 7.8125 5.95313 7.8125C6.30123 7.8125 6.63507 7.67422 6.88121 7.42808C7.12735 7.18194 7.26563 6.8481 7.26563 6.5C7.26563 6.1519 7.12735 5.81806 6.88121 5.57192C6.63507 5.32578 6.30123 5.1875 5.95313 5.1875C5.60503 5.1875 5.2712 5.32578 5.02505 5.57192C4.77891 5.81806 4.64063 6.1519 4.64063 6.5ZM11.0414 6.19766C9.93048 3.85742 8.25118 2.67969 6.00001 2.67969C3.74766 2.67969 2.06954 3.85742 0.9586 6.19883C0.91404 6.29318 0.89093 6.39624 0.89093 6.50059C0.89093 6.60493 0.91404 6.70799 0.9586 6.80234C2.06954 9.14258 3.74883 10.3203 6.00001 10.3203C8.25235 10.3203 9.93048 9.14258 11.0414 6.80117C11.1316 6.61133 11.1316 6.39102 11.0414 6.19766ZM5.95313 8.5625C4.81407 8.5625 3.89063 7.63906 3.89063 6.5C3.89063 5.36094 4.81407 4.4375 5.95313 4.4375C7.09219 4.4375 8.01563 5.36094 8.01563 6.5C8.01563 7.63906 7.09219 8.5625 5.95313 8.5625Z" fill="#9CA0D2"/>
</svg>
