<svg width="8" height="9" viewBox="0 0 8 9" fill="none" xmlns="http://www.w3.org/2000/svg">
<path d="M1.5 0.5C1.10218 0.5 0.720644 0.658035 0.43934 0.93934C0.158035 1.22064 0 1.60218 0 2V6C0 6.39782 0.158035 6.77936 0.43934 7.06066C0.720644 7.34196 1.10218 7.5 1.5 7.5H2V8.5C1.99998 8.58847 2.02343 8.67535 2.06797 8.75179C2.1125 8.82823 2.17651 8.89149 2.25348 8.93511C2.33044 8.97873 2.4176 9.00114 2.50606 9.00007C2.59452 8.99899 2.68111 8.97447 2.757 8.929L5.138 7.5H6.5C6.89782 7.5 7.27936 7.34196 7.56066 7.06066C7.84196 6.77936 8 6.39782 8 6V2C8 1.60218 7.84196 1.22064 7.56066 0.93934C7.27936 0.658035 6.89782 0.5 6.5 0.5H1.5Z" fill="#9CA0D2"/>
</svg>
